<svg width="48" height="48" viewBox="0 0 48 48" fill="none" xmlns="http://www.w3.org/2000/svg">
<path d="M24 4C26.2667 4 28.5333 4.46667 30.8 5.4C33.0667 6.33333 35.0667 7.63333 36.8 9.3C38.5333 10.9667 39.8667 12.9333 40.8 15.2C41.7333 17.4667 42.2 19.7333 42.2 22C42.2 24.2667 41.7333 26.5333 40.8 28.8C39.8667 31.0667 38.5333 33.0333 36.8 34.7C35.0667 36.3667 33.0667 37.6667 30.8 38.6C28.5333 39.5333 26.2667 40 24 40C20.6 40 17.3333 39.1 14.2 37.3C11.0667 35.5 8.46667 33.0667 6.4 30L9.2 28.4C10.8667 30.9333 13.0333 32.7333 15.7 33.8C18.3667 34.8667 21.1333 35.4 24 35.4C25.7333 35.4 27.4667 35.1 29.2 34.5C30.9333 33.9 32.4667 33.0333 33.8 31.9C35.1333 30.7667 36.1667 29.4 36.9 27.8C37.6333 26.2 38 24.4667 38 22.6C38 20.6667 37.4 18.9 36.2 17.3C35 15.7 33.3333 14.5333 31.2 13.8C29.0667 13.0667 26.6667 12.7 24 12.7V17L17 10.5L24 4Z" stroke="hsl(0 0% 98%)" stroke-width="2" stroke-linecap="round" stroke-linejoin="round"/>
<path d="M24 40C20.6 40 17.3333 40.9 14.2 42.7L11.4 44C13.5333 45.1333 15.8667 46 18.4 46.6C20.9333 47.2 23.4667 47.5 26 47.5C29.4 47.5 32.6667 46.6 35.8 44.8C38.9333 43 41.5333 40.5333 43.6 37.4L40.8 35.8C39.1333 38.3333 36.9667 40.1333 34.3 41.2C31.6333 42.2667 28.8667 42.8 26 42.8C25.2 42.8 24.4667 42.7333 23.8 42.6C23.1333 42.4667 22.4667 42.2333 21.8 41.9C21.1333 41.5667 20.5667 41.2333 20.1 40.9C19.6333 40.5667 19.2333 40.2 18.9 39.8C16.8667 38.0667 15.3333 35.8333 14.3 33.1L11.4 34.7C12.4667 37.0333 13.9667 38.9667 15.9 40.5C17.8333 42.0333 20.1667 43.1 22.9 43.7C22.2388 42.8023 21.7143 41.8339 21.3486 40.8227C21.1833 40.3333 21.05 39.8333 20.95 39.3C20.85 38.7667 20.8 38.2333 20.8 37.7C20.8 36.6 21.0667 35.5333 21.6 34.5C22.1333 33.4667 22.8667 32.5667 23.8 31.8L20.8 30.1C19.4667 31.2333 18.3333 32.5667 17.4 34.1C16.4667 35.6333 15.8333 37.3 15.5 39.1L12.5 37.4C12.9 35.3333 13.7667 33.4667 15.1 31.8C16.4333 30.1333 18.1 28.8 20.1 27.8L23.1 29.5C22.1667 30 21.4 30.6667 20.8 31.5C20.2 32.3333 19.9 33.2667 19.9 34.3C19.9 34.9333 20.0333 35.5333 20.3 36.1C20.5667 36.6667 20.9333 37.1667 21.4 37.6C22.2667 38.4667 23.3333 39.1 24.6 39.5L24 40Z" stroke="hsl(0 0% 98%)" stroke-width="2" stroke-linecap="round" stroke-linejoin="round"/>
</svg>
